Coordinates
version=1
nRows=14
nColumns=36
inDegrees=yes

Units are S.I. units (second, meters, Newtons, ...)
If the header above contains a line with 'inDegrees', this indicates whether rotational values are in degrees (yes) or radians (no).

endheader
time	pelvis_tilt	pelvis_list	pelvis_rotation	pelvis_tx	pelvis_ty	pelvis_tz	hip_flexion_r	hip_adduction_r	hip_rotation_r	knee_angle_r	knee_angle_r_beta	ankle_angle_r	subtalar_angle_r	mtp_angle_r	hip_flexion_l	hip_adduction_l	hip_rotation_l	knee_angle_l	knee_angle_l_beta	ankle_angle_l	subtalar_angle_l	mtp_angle_l	lumbar_extension	lumbar_bending	lumbar_rotation	arm_flex_r	arm_add_r	arm_rot_r	elbow_flex_r	pro_sup_r	arm_flex_l	arm_add_l	arm_rot_l	elbow_flex_l	pro_sup_l
      2.94583330	    -14.33172129	     -3.39372030	      3.99146735	      0.34877442	      0.88814135	     -0.04987171	     38.59078614	     -8.98727200	     -4.28246201	     45.08433806	      0.78687014	     -2.83686819	    -17.86950259	     -7.49999987	     41.12293001	     -7.07250952	      3.04784157	     44.68933811	      0.77997609	     -0.02871526	    -20.49667054	     -7.49999987	     -4.67223948	      5.86361130	      0.08174226	     70.81029668	     -2.41534266	     36.40001786	    116.99971879	     87.78517875	     65.01007644	    -11.22850444	     27.06501874	    120.89220620	     84.26216387
      2.95000000	    -13.83786779	     -3.54205036	      4.40232778	      0.34986529	      0.90518803	     -0.05054116	     36.24200449	     -9.06432743	     -5.00264945	     41.66142542	      0.72712904	     -5.53503178	    -16.66692339	     -7.49999987	     38.87114529	     -7.17244888	      2.47920833	     41.54423856	      0.72508375	     -1.96502156	    -19.88630163	     -7.49999987	     -4.61225552	      5.97196493	     -0.81793601	     69.21698752	     -3.08521655	     37.04627884	    117.20622219	     86.83401659	     62.63803658	     -9.89221267	     25.95613386	    120.69636246	     83.42032641
      2.95416670	    -13.70203597	     -3.72299284	      5.29916858	      0.35446443	      0.91023989	     -0.04674420	     34.24783845	     -9.12309918	     -5.87364009	     38.75598238	      0.67641950	     -7.43535492	    -15.06990748	     -7.49999987	     37.30817484	     -7.70274872	      1.63208790	     38.73005026	      0.67596690	     -4.15303020	    -18.44997213	     -7.49999987	     -3.91919384	      5.93010513	     -1.65073074	     68.13188007	     -3.58920517	     37.40446553	    117.18258493	     86.99467454	     61.11194875	     -9.43925900	     25.78457166	    120.55624694	     83.52579905
      2.95833330	    -13.27994506	     -3.88268895	      6.10231999	      0.35877342	      0.91345691	     -0.04394982	     32.49460662	     -9.12368534	     -7.09381180	     37.08931216	      0.64733061	     -8.78468418	    -14.73626331	     -7.49999987	     35.93140707	     -8.13380437	      1.39456234	     36.53922417	      0.63772977	     -5.97629996	    -16.54697563	     -7.49999987	     -3.52778797	      5.80608468	     -2.43921804	     67.43297044	     -3.83982403	     37.25893954	    117.09445647	     89.53080144	     59.65695921	     -9.05456917	     24.37352606	    120.50560133	     86.16796255
      2.96250000	    -13.20983013	     -3.69733271	      6.33874445	      0.35898293	      0.92837879	     -0.04421238	     30.78455445	     -9.25554254	     -7.98549126	     34.08743117	      0.59493791	    -10.26094819	    -12.69397606	     -7.49999987	     34.68340130	     -8.47575525	      0.35759941	     33.83937215	      0.59060846	     -8.75652646	    -14.10679919	     -7.49999987	     -2.84530931	      5.26552594	     -2.60277873	     65.92054653	     -4.12681613	     37.40762490	    116.87595837	     88.26000925	     58.66814576	     -9.25794442	     24.16842935	    120.16587341	     85.12257940
      2.96666670	    -12.60088177	     -3.66257896	      6.37399481	      0.36365458	      0.94506425	     -0.04085220	     28.33329537	     -9.04028839	     -9.38852551	     30.58690366	      0.53384218	    -12.41975360	    -10.25773759	     -7.49999987	     32.53124272	     -9.04799999	     -0.31091114	     30.59852974	      0.53404509	    -12.14613795	    -11.00984702	     -7.49999987	     -2.75943278	      4.52669799	     -2.69025201	     63.36600797	     -4.45094160	     37.25950271	    116.56872672	     87.34251684	     57.56182547	     -9.34967520	     24.56611747	    119.11851928	     84.53983040
      2.97083330	    -12.22802414	     -3.58003014	      6.06779661	      0.37527378	      0.95070891	     -0.03695344	     26.31826531	     -8.74619902	    -10.58616499	     28.03112994	      0.48923551	    -14.98462993	     -7.83164243	     -7.49999987	     30.16441892	     -9.89643711	     -1.57272781	     27.53305875	      0.48054253	    -15.10160295	     -8.75026980	     -7.49999987	     -2.00127087	      3.75713190	     -2.85488412	     59.56867035	     -4.02341483	     37.14006208	    116.54822435	     87.35881953	     55.42624553	     -9.93177101	     24.80390164	    118.91955024	     84.52561219
      2.97500000	    -11.73869744	     -3.70100664	      6.12754917	      0.37879992	      0.95941366	     -0.03349200	     24.40185185	     -8.32233032	    -11.91452534	     25.75751821	      0.44955350	    -17.10810528	     -5.84565378	     -7.49999987	     28.22995823	    -10.61954288	     -2.67703454	     25.15185272	      0.43898264	    -18.11306482	     -7.19936538	     -7.49999987	     -1.53580661	      3.31278784	     -3.04780093	     55.73095059	     -3.11727250	     35.52405318	    116.44524112	     87.33318190	     53.85770581	    -10.58250031	     24.82255046	    118.84303267	     84.40067195
      2.97916670	    -11.41863697	     -3.77958669	      5.98163647	      0.37783559	      0.96906765	     -0.03359893	     22.77443529	     -7.91550685	    -12.69739937	     23.09535581	      0.40309000	    -19.79751266	     -4.66072267	     -7.49999987	     26.83687377	    -10.95809523	     -3.87528224	     23.16324323	      0.40427486	    -20.95425809	     -6.87339320	     -7.49999987	     -0.99656988	      2.95297545	     -3.34543529	     53.45410424	     -2.73204571	     34.88817364	    116.23149902	     87.35013115	     53.36792488	    -11.09610559	     25.45608413	    118.12160797	     84.25298527
      2.98333330	    -11.12301982	     -3.74574300	      5.92223086	      0.38554058	      0.99113125	     -0.03535646	     20.16269864	     -7.43548082	    -12.95285780	     18.83634063	      0.32875616	    -23.91898502	     -3.70236194	     -7.49999987	     24.68407512	    -10.93849862	     -5.20980914	     20.01910408	      0.34939928	    -24.75393256	     -5.46464087	     -7.49999987	     -0.40498232	      2.86546854	     -3.53309760	     51.09824513	     -2.50875920	     34.66539665	    115.91380695	     87.87310681	     51.79262554	    -11.22198113	     25.96465064	    117.08365146	     84.60767014
      2.98750000	    -10.56266288	     -3.74354178	      5.92621236	      0.38867796	      0.99931464	     -0.04014070	     17.71120460	     -7.14566047	    -12.64694426	     15.29513072	      0.26695039	    -27.89326804	     -2.99102766	     -7.49999987	     22.73914971	    -10.64731885	     -6.24529629	     17.67553767	      0.30849633	    -27.58368835	     -4.70657630	     -7.49999987	     -0.28981875	      3.05226815	     -3.43834453	     49.44647030	     -2.74857232	     33.94337333	    115.71738652	     87.77216596	     50.42936532	    -10.55085038	     26.22153195	    115.77317391	     84.26897120
      2.99166670	    -10.41966808	     -3.39795155	      6.12540745	      0.38792093	      1.00197520	     -0.04038775	     16.51764893	     -7.45237859	    -11.96814193	     13.05491187	      0.22785120	    -31.50371467	     -2.59010502	     -7.49999987	     21.78379627	    -10.10615196	     -7.55642971	     15.73199287	      0.27457507	    -29.99114465	     -2.83140515	     -7.49999987	      0.05320440	      2.87465648	     -3.13495394	     48.44354621	     -3.02456641	     33.82759465	    115.79929553	     86.94196187	     49.17789858	     -9.95256817	     26.79338490	    115.24207666	     83.24086978
      2.99583330	    -10.42431056	     -2.71857501	      6.12502269	      0.39519239	      1.01176563	     -0.04101319	     15.39036713	     -7.97760660	    -11.76628983	     10.99480496	      0.19189555	    -34.60982763	     -2.61368151	     -7.49999987	     20.46818806	     -9.39803600	     -9.14527755	     13.53791257	      0.23628115	    -32.50542358	     -0.83693791	     -7.49999987	      0.74381664	      2.26537564	     -2.45044854	     47.02060261	     -3.81483498	     33.52713676	    115.98294976	     85.36482830	     46.91733956	     -8.86661432	     26.88040984	    114.70874604	     81.63208913
      3.00000000	    -10.03272201	     -3.34662597	      5.50155020	      0.39810822	      1.02464063	     -0.04708641	     14.61429984	     -7.68953713	    -10.63155304	      9.94234509	      0.17352666	    -33.61275133	     -5.11938975	     -7.49999987	     18.87922210	     -9.87952159	     -9.24094304	     11.53599352	      0.20134107	    -33.27000757	      1.09961120	     -7.49999987	      0.87885038	      3.38482291	     -2.06943296	     45.59045343	     -5.00692234	     33.38061573	    117.27274463	     84.12034193	     44.33364644	     -7.15407399	     27.04004124	    115.93690288	     80.35418090
